<?xml version="1.0" standalone="no"?>
<!DOCTYPE svg PUBLIC "-//W3C//DTD SVG 20010904//EN"
 "http://www.w3.org/TR/2001/REC-SVG-20010904/DTD/svg10.dtd">
<svg version="1.0" xmlns="http://www.w3.org/2000/svg"
 width="512.000000pt" height="512.000000pt" viewBox="0 0 512.000000 512.000000"
 preserveAspectRatio="xMidYMid meet">

<g transform="translate(0.000000,512.000000) scale(0.100000,-0.100000)"
fill="#000000" stroke="none">
<path d="M2405 5103 c-343 -73 -595 -384 -595 -733 0 -351 255 -662 602 -734
246 -51 499 26 677 207 138 140 205 289 218 487 27 425 -325 794 -754 789 -43
0 -109 -7 -148 -16z m247 -294 c87 -18 158 -58 223 -123 258 -259 118 -696
-244 -758 -141 -24 -281 22 -386 127 -178 177 -178 454 -1 630 111 111 258
155 408 124z"/>
<path d="M1242 4083 c-425 -305 -740 -772 -866 -1284 -41 -168 -72 -408 -52
-414 6 -2 73 -6 148 -9 l137 -6 5 32 c2 18 12 86 21 151 31 225 118 474 237
680 147 251 321 441 591 642 l27 20 -80 123 c-44 67 -82 122 -84 122 -2 0 -40
-26 -84 -57z"/>
<path d="M3717 4028 c-40 -62 -76 -118 -80 -124 -4 -7 25 -35 76 -72 432 -314
728 -828 785 -1365 6 -49 12 -90 15 -93 3 -3 70 -2 149 3 l143 8 -3 55 c-2 30
-10 100 -18 155 -85 582 -417 1131 -893 1478 -106 78 -91 82 -174 -45z"/>
<path d="M600 1945 c-100 -23 -176 -54 -254 -105 -530 -349 -429 -1139 172
-1340 316 -106 664 13 852 291 291 427 72 1002 -435 1146 -76 21 -257 26 -335
8z m242 -296 c179 -38 318 -184 350 -368 32 -186 -62 -376 -230 -464 -181 -95
-384 -65 -527 78 -180 180 -180 451 0 630 113 113 255 156 407 124z"/>
<path d="M4275 1954 c-103 -21 -136 -30 -195 -54 -326 -134 -515 -491 -444
-838 90 -440 543 -703 967 -561 471 157 662 702 393 1118 -108 168 -280 285
-478 325 -70 15 -194 19 -243 10z m187 -305 c84 -18 158 -59 223 -124 178
-178 178 -452 0 -630 -247 -247 -660 -133 -751 208 -40 149 6 307 121 422 112
112 256 156 407 124z"/>
<path d="M1614 377 c-77 -153 -84 -134 75 -201 564 -237 1209 -233 1769 11 56
25 105 49 107 54 3 4 -24 67 -59 138 l-66 130 -75 -35 c-491 -227 -1084 -230
-1588 -9 l-98 43 -65 -131z"/>
</g>
</svg>
